<?xml version="1.0" standalone="no"?>
<!DOCTYPE svg PUBLIC "-//W3C//DTD SVG 20010904//EN"
 "http://www.w3.org/TR/2001/REC-SVG-20010904/DTD/svg10.dtd">
<svg version="1.0" xmlns="http://www.w3.org/2000/svg"
 width="512.000000pt" height="512.000000pt" viewBox="0 0 512.000000 512.000000"
 preserveAspectRatio="xMidYMid meet">

<g transform="translate(0.000000,512.000000) scale(0.100000,-0.100000)"
fill="#fff" stroke="none">
<path d="M1676 5110 c-236 -38 -468 -160 -637 -336 -389 -407 -440 -1045 -122
-1515 229 -337 636 -533 1020 -490 270 31 492 140 680 334 107 111 159 186
225 322 199 417 138 914 -157 1282 -203 254 -494 398 -820 408 -71 2 -156 0
-189 -5z"/>
<path d="M994 2851 c-168 -76 -275 -145 -414 -265 -279 -241 -482 -606 -556
-996 -15 -81 -18 -169 -22 -587 l-3 -493 383 0 383 0 -3 251 c-3 248 -3 252
19 275 29 31 88 33 115 3 17 -19 19 -41 22 -246 2 -133 -1 -237 -7 -254 l-10
-29 815 0 c650 0 814 3 808 13 -5 6 -48 72 -96 145 -83 126 -88 137 -88 186 0
83 19 104 239 264 20 15 22 21 13 38 -9 17 -31 24 -114 38 -137 23 -183 40
-215 82 -42 55 -40 100 11 389 26 143 52 275 57 293 16 48 54 88 103 107 40
16 49 15 162 -5 65 -11 127 -23 136 -26 10 -3 21 3 27 14 8 15 -4 39 -67 133
-76 113 -77 115 -77 179 0 88 14 106 185 225 77 54 143 102 146 106 6 11 -128
94 -235 145 l-93 45 -72 -49 c-104 -71 -169 -106 -276 -145 -383 -142 -804
-92 -1136 135 l-81 56 -59 -27z"/>
<path d="M3707 2798 c-11 -9 -25 -62 -45 -171 -16 -87 -34 -163 -39 -168 -6
-6 -50 -19 -99 -30 -75 -16 -91 -17 -108 -5 -12 7 -59 70 -106 140 -91 135
-103 143 -150 106 -14 -11 -29 -20 -33 -20 -5 0 -14 -6 -21 -12 -7 -7 -90 -67
-184 -133 -94 -66 -174 -126 -177 -133 -2 -7 36 -73 85 -147 52 -77 90 -145
90 -159 0 -21 -28 -71 -85 -153 -20 -29 -36 -29 -212 4 -96 18 -147 23 -153
17 -14 -14 -113 -566 -103 -574 4 -4 80 -21 168 -38 106 -21 164 -37 171 -47
7 -9 15 -41 19 -72 4 -31 11 -68 16 -81 14 -37 -5 -58 -141 -157 -67 -48 -124
-93 -126 -99 -6 -17 303 -476 321 -476 7 0 73 40 146 90 73 49 140 90 149 90
22 0 166 -96 174 -115 3 -8 -8 -85 -23 -172 -24 -132 -27 -160 -16 -172 16
-16 521 -113 547 -105 20 6 19 2 53 189 18 104 30 144 44 156 10 8 57 21 105
29 72 11 88 11 102 -1 9 -8 52 -66 94 -129 42 -63 84 -121 93 -129 14 -11 46
7 238 141 123 85 227 162 233 170 8 13 -10 46 -82 155 -86 130 -105 174 -82
188 5 3 26 35 45 70 20 35 45 67 56 70 12 4 88 -6 171 -21 109 -20 154 -25
166 -17 13 8 29 76 66 282 42 233 47 275 35 287 -8 7 -83 26 -167 42 -87 16
-159 35 -168 43 -13 14 -23 57 -41 170 l-5 36 135 97 c75 52 139 101 142 107
8 12 -299 479 -315 479 -6 0 -71 -40 -145 -90 -74 -49 -143 -90 -154 -90 -25
0 -157 84 -170 108 -6 11 1 72 20 176 20 111 25 163 18 172 -13 15 -12 15
-279 64 -124 23 -232 43 -241 46 -8 2 -22 -2 -32 -8z m233 -830 c174 -63 309
-213 366 -403 29 -96 25 -240 -10 -340 -65 -191 -222 -340 -412 -390 -74 -19
-213 -19 -287 0 -203 53 -368 223 -423 436 -22 87 -15 249 16 336 44 127 142
245 263 317 144 85 328 102 487 44z"/>
<path d="M3645 1857 c-179 -46 -316 -196 -347 -380 -38 -233 133 -475 367
-518 219 -40 439 100 506 323 69 225 -57 475 -279 558 -70 27 -180 34 -247 17z"/>
</g>
</svg>
