<?xml version="1.0" standalone="no"?>
<!DOCTYPE svg PUBLIC "-//W3C//DTD SVG 20010904//EN"
 "http://www.w3.org/TR/2001/REC-SVG-20010904/DTD/svg10.dtd">
<svg version="1.0" xmlns="http://www.w3.org/2000/svg"
 width="512.000000pt" height="512.000000pt" viewBox="0 0 512.000000 512.000000"
 preserveAspectRatio="xMidYMid meet">

<g transform="translate(0.000000,512.000000) scale(0.100000,-0.100000)"
fill="#fff" stroke="none">
<path d="M1735 4914 c-532 -40 -844 -105 -1101 -229 -161 -78 -232 -164 -205
-248 35 -105 263 -224 576 -301 644 -158 1577 -137 2137 48 159 52 212 75 299
132 137 90 156 179 58 273 -141 135 -535 255 -1009 306 -137 15 -642 28 -755
19z"/>
<path d="M420 3799 c0 -463 -2 -449 77 -518 52 -46 172 -107 298 -151 625
-218 1709 -224 2355 -14 203 67 355 157 396 235 11 23 14 103 14 439 0 225 -2
410 -4 410 -3 0 -34 -18 -69 -40 -278 -175 -876 -290 -1500 -290 -647 0 -1253
125 -1529 314 l-38 25 0 -410z"/>
<path d="M420 2728 c0 -358 2 -414 16 -444 53 -111 333 -238 679 -308 283 -58
775 -97 1008 -81 l105 7 42 86 c61 127 141 241 243 349 117 122 235 210 372
278 193 95 336 133 543 142 l132 6 0 188 0 188 -37 -25 c-168 -115 -499 -218
-863 -268 -803 -111 -1746 -5 -2159 243 l-81 49 0 -410z"/>
<path d="M3286 2585 c-375 -71 -692 -309 -861 -645 -192 -384 -165 -838 73
-1205 56 -85 234 -267 319 -324 319 -213 709 -267 1069 -146 571 192 916 805
785 1395 -98 441 -438 791 -881 907 -122 32 -379 41 -504 18z m-94 -325 c31
-31 34 -55 13 -104 -7 -17 -5 -18 16 -12 13 4 49 15 79 24 41 13 93 17 205 16
136 0 158 -3 230 -27 132 -44 219 -99 320 -201 50 -50 105 -117 124 -149 66
-112 111 -276 111 -400 0 -131 -44 -304 -83 -332 -32 -22 -74 -19 -102 10 -30
29 -31 52 -4 130 28 84 35 221 15 315 -49 234 -241 432 -472 486 -92 21 -266
15 -344 -14 -57 -21 -55 -25 13 -37 50 -8 77 -36 77 -80 0 -47 -29 -75 -78
-75 -21 0 -103 11 -182 25 -126 22 -148 29 -167 51 -13 14 -23 35 -23 47 1 12
31 91 68 176 68 154 88 180 135 181 10 0 32 -14 49 -30z m-305 -525 c33 -23
36 -60 11 -134 -19 -56 -23 -86 -23 -196 0 -111 4 -141 24 -204 87 -266 354
-445 635 -428 78 4 234 42 223 53 -2 2 -28 8 -58 14 -67 13 -93 37 -93 86 0
44 31 74 78 74 37 0 303 -45 330 -56 25 -10 45 -61 36 -93 -22 -73 -124 -289
-146 -309 -33 -29 -69 -28 -99 3 -27 26 -33 72 -15 105 10 19 9 19 -44 0 -177
-61 -398 -49 -572 30 -284 129 -464 407 -464 719 0 154 41 313 87 340 26 15
65 13 90 -4z"/>
<path d="M420 1659 l0 -414 23 -38 c100 -165 542 -309 1109 -362 145 -13 693
-23 704 -12 2 1 -8 32 -23 67 -63 158 -93 317 -93 500 0 100 16 252 33 320 1
6 -91 12 -238 14 -674 13 -1188 124 -1487 320 l-28 18 0 -413z"/>
</g>
</svg>
