<?xml version="1.0" standalone="no"?>
<!DOCTYPE svg PUBLIC "-//W3C//DTD SVG 20010904//EN"
 "http://www.w3.org/TR/2001/REC-SVG-20010904/DTD/svg10.dtd">
<svg version="1.0" xmlns="http://www.w3.org/2000/svg"
 width="512.000000pt" height="512.000000pt" viewBox="0 0 512.000000 512.000000"
 preserveAspectRatio="xMidYMid meet">

<g transform="translate(0.000000,512.000000) scale(0.100000,-0.100000)"
fill="#fff" stroke="none">
<path d="M1840 4347 c-280 -110 -353 -143 -484 -216 -141 -79 -234 -169 -286
-274 -46 -95 -83 -219 -107 -358 l-17 -98 -147 -147 -147 -147 -37 23 c-47 29
-103 29 -148 1 -20 -12 -72 -60 -116 -107 -90 -95 -119 -157 -105 -231 13 -71
42 -108 241 -304 160 -158 206 -198 239 -207 106 -31 173 -2 301 129 112 116
122 145 78 224 l-28 50 81 75 c108 102 154 124 241 117 36 -2 103 -17 149 -32
l83 -26 36 21 36 21 169 -168 c92 -92 166 -174 163 -181 -4 -10 -309 -389
-1142 -1420 -91 -112 -101 -142 -61 -179 48 -43 381 -233 409 -233 19 0 105
48 263 148 130 81 245 155 256 164 17 15 20 30 20 88 l0 70 163 0 c146 0 166
2 180 18 14 16 17 44 17 180 l0 162 160 0 c157 0 161 1 185 25 24 24 25 28 25
180 l0 155 93 0 92 0 580 -581 c319 -319 592 -587 607 -595 15 -8 48 -14 74
-14 47 0 49 2 145 97 107 107 124 142 99 206 -8 20 -241 260 -624 645 l-611
612 116 0 c156 0 149 -9 149 198 l0 162 162 0 161 0 141 140 141 139 45 -15
c61 -22 197 -30 257 -15 26 6 113 43 193 81 146 70 242 99 328 100 58 0 79 13
92 58 6 20 37 214 70 431 59 383 60 396 46 446 -18 59 -70 120 -125 142 -38
16 -151 25 -1041 84 -273 18 -507 29 -521 26 -20 -5 -77 -84 -258 -356 -255
-382 -248 -366 -190 -427 l30 -31 -201 -249 c-111 -137 -208 -256 -216 -264
-12 -13 -33 5 -168 139 l-155 154 20 25 c33 42 24 65 -64 174 -205 254 -245
334 -214 426 32 92 83 158 260 334 163 164 177 180 177 213 0 50 -36 85 -87
84 -23 0 -129 -36 -273 -92z m-25 -209 c-120 -133 -187 -250 -201 -357 -13
-102 48 -231 197 -416 36 -45 69 -87 73 -94 6 -9 -35 -57 -134 -156 l-142
-142 -62 19 c-82 26 -202 34 -261 18 -64 -18 -149 -75 -237 -159 l-74 -70
-112 112 -112 112 160 160 c88 88 162 167 165 175 2 8 16 76 30 152 24 131 58
244 95 319 41 80 160 171 332 254 92 45 325 143 341 144 5 1 -21 -32 -58 -71z
m2180 -108 c352 -22 657 -46 678 -51 72 -19 73 -23 8 -441 l-56 -367 -70 -12
c-91 -15 -190 -51 -290 -104 -116 -62 -174 -78 -255 -73 -88 7 -155 39 -255
123 -232 195 -309 234 -566 280 -75 14 -156 32 -180 40 -51 18 -149 75 -149
87 0 4 84 135 187 289 l188 281 60 -5 c33 -3 348 -24 700 -47z m-860 -776
c243 -45 311 -75 474 -210 l103 -86 -108 -109 -109 -109 -176 0 c-238 0 -223
13 -227 -199 l-3 -161 -132 0 -132 0 -197 198 -196 197 224 276 224 277 62
-25 c34 -14 121 -36 193 -49z m-140 -1244 l1070 -1070 -60 -60 -60 -60 -1072
1072 -1073 1073 57 57 c32 32 60 58 63 58 3 0 486 -481 1075 -1070z m-2230
780 l220 -221 -81 -79 c-63 -62 -88 -80 -110 -80 -23 0 -60 32 -212 183 -101
100 -188 192 -193 205 -14 35 6 71 79 145 36 37 69 67 72 67 3 0 104 -99 225
-220z m1775 -772 c0 -5 -31 -8 -69 -8 -99 0 -101 -3 -101 -202 l0 -158 -159 0
c-217 0 -205 11 -209 -199 l-3 -161 -155 0 c-151 0 -156 -1 -179 -25 -22 -22
-25 -33 -25 -107 l-1 -83 -199 -123 -199 -124 -126 74 c-68 40 -124 78 -122
83 1 6 261 331 577 723 l575 711 198 -197 c108 -108 197 -200 197 -204z"/>
<path d="M3415 3891 c-54 -25 -111 -86 -130 -140 -32 -92 -14 -180 55 -253 43
-47 56 -53 340 -166 279 -110 299 -117 365 -117 107 1 180 48 224 145 44 96
13 227 -69 292 -20 15 -163 78 -328 143 -263 103 -300 115 -355 115 -39 0 -77
-7 -102 -19z m391 -221 c140 -55 268 -107 284 -115 66 -34 81 -112 33 -165
-50 -55 -72 -52 -318 45 -354 139 -364 144 -380 176 -39 75 7 158 88 159 24 0
127 -35 293 -100z"/>
</g>
</svg>
