<?xml version="1.0" standalone="no"?>
<!DOCTYPE svg PUBLIC "-//W3C//DTD SVG 20010904//EN"
 "http://www.w3.org/TR/2001/REC-SVG-20010904/DTD/svg10.dtd">
<svg version="1.0" xmlns="http://www.w3.org/2000/svg"
 width="512.000000pt" height="512.000000pt" viewBox="0 0 512.000000 512.000000"
 preserveAspectRatio="xMidYMid meet">

<g transform="translate(0.000000,512.000000) scale(0.100000,-0.100000)"
fill="#fff" stroke="none">
<path d="M955 4465 c-232 -51 -421 -220 -498 -445 l-22 -65 -3 -1470 c-2
-1320 -1 -1477 13 -1543 52 -234 245 -432 481 -492 75 -19 117 -20 1528 -20
1619 0 1510 -4 1664 72 150 74 268 211 329 383 l28 80 3 810 c2 569 0 821 -8
848 -24 83 -112 147 -200 147 -88 0 -152 -38 -193 -115 -22 -40 -22 -45 -27
-840 l-5 -800 -27 -46 c-31 -53 -89 -94 -150 -109 -27 -6 -547 -10 -1419 -10
-1549 0 -1444 -5 -1524 75 -80 80 -75 -25 -75 1524 0 872 4 1392 10 1419 15
61 56 119 109 150 l46 27 800 5 800 5 45 25 c67 38 103 96 108 174 5 71 -14
120 -65 168 -63 60 -28 58 -895 57 -618 0 -806 -4 -853 -14z"/>
<path d="M3760 4460 c-83 -18 -147 -58 -260 -167 -61 -58 -110 -110 -110 -117
0 -14 771 -786 786 -786 23 0 222 219 248 273 37 76 51 162 37 239 -18 106
-52 158 -193 303 -147 152 -216 209 -286 235 -61 23 -161 32 -222 20z"/>
<path d="M2453 3248 c-344 -345 -627 -636 -632 -651 -7 -18 -11 -152 -11 -359
0 -368 2 -383 65 -412 48 -23 681 -24 728 -1 18 8 311 294 652 635 l620 620
-395 395 c-217 217 -397 395 -400 395 -3 0 -285 -280 -627 -622z"/>
</g>
</svg>
