<?xml version="1.0" standalone="no"?>
<!DOCTYPE svg PUBLIC "-//W3C//DTD SVG 20010904//EN"
 "http://www.w3.org/TR/2001/REC-SVG-20010904/DTD/svg10.dtd">
<svg version="1.0" xmlns="http://www.w3.org/2000/svg"
 width="512.000000pt" height="512.000000pt" viewBox="0 0 512.000000 512.000000"
 preserveAspectRatio="xMidYMid meet">

<g transform="translate(0.000000,512.000000) scale(0.100000,-0.100000)"
fill="#fff" stroke="none">
<path d="M1850 4995 c-75 -22 -130 -56 -183 -114 -56 -64 -87 -128 -101 -213
l-10 -66 -156 -4 c-145 -3 -158 -5 -206 -30 -57 -30 -113 -87 -133 -136 l-13
-32 -247 0 c-136 0 -274 -5 -307 -11 -82 -15 -154 -52 -219 -111 -65 -59 -100
-114 -126 -199 -18 -59 -19 -125 -19 -1824 0 -1699 1 -1765 19 -1824 26 -85
61 -140 126 -199 66 -61 139 -97 226 -112 45 -8 496 -10 1544 -8 l1480 3 205
133 c121 79 225 155 255 186 46 47 91 138 525 1041 l475 990 0 115 c0 109 -2
119 -32 182 -102 216 -351 306 -559 203 -136 -67 -149 -87 -398 -611 -120
-252 -222 -463 -227 -469 -6 -5 -8 214 -7 564 l3 573 80 27 c103 33 168 75
248 161 106 112 157 242 157 398 0 160 -58 300 -171 413 -80 81 -199 144 -304
162 -67 12 -72 15 -137 80 -46 47 -87 77 -135 100 l-68 32 -288 3 -287 3 -20
40 c-28 55 -87 111 -146 140 -44 21 -65 24 -200 27 l-151 4 -6 56 c-13 125
-123 267 -242 311 -76 29 -176 35 -245 16z m167 -289 c33 -38 39 -72 19 -113
-19 -40 -73 -67 -117 -58 -43 10 -79 58 -79 107 0 31 7 46 30 70 28 28 36 30
78 25 34 -4 53 -12 69 -31z m-997 -503 c0 -100 35 -170 100 -203 38 -19 62
-20 825 -20 855 0 811 -3 867 57 37 39 48 73 48 149 l0 65 268 -3 c264 -3 268
-3 317 -28 26 -14 50 -30 52 -35 2 -6 -18 -17 -44 -25 -69 -20 -190 -107 -246
-175 -124 -153 -166 -360 -111 -547 44 -150 162 -288 305 -356 46 -22 112 -46
147 -53 l62 -12 0 -733 0 -734 -171 -359 c-133 -281 -171 -371 -176 -413 -4
-45 17 -356 32 -471 l5 -37 -1402 2 -1403 3 -47 23 c-67 33 -123 94 -148 158
-20 55 -20 61 -18 1822 l3 1767 22 41 c36 67 70 101 135 133 l61 31 259 0 258
0 0 -47z m2874 -414 c18 -14 26 -30 26 -53 0 -28 -19 -51 -154 -185 -183 -181
-172 -179 -283 -68 -88 88 -97 114 -54 158 39 38 69 34 122 -18 46 -44 47 -44
171 86 105 109 124 118 172 80z m436 -1325 c41 -19 76 -37 78 -39 2 -1 -101
-220 -229 -486 -127 -266 -299 -626 -382 -799 -82 -173 -151 -316 -152 -318
-2 -2 -41 16 -88 40 l-86 43 295 615 c162 338 334 697 382 798 48 100 92 182
97 182 6 0 44 -16 85 -36z m300 -150 c41 -19 77 -37 79 -39 2 -3 -742 -1584
-755 -1603 -1 -2 -41 16 -88 40 l-85 43 377 797 c207 439 382 797 387 798 6 0
44 -16 85 -36z"/>
<path d="M1812 3775 c-12 -9 -28 -39 -37 -70 -16 -52 -18 -54 -68 -71 -29 -9
-68 -25 -88 -36 l-37 -20 -44 26 c-73 43 -90 38 -185 -57 -76 -77 -83 -86 -82
-123 0 -23 9 -53 23 -74 l23 -34 -32 -71 c-18 -38 -35 -77 -38 -87 -3 -9 -29
-23 -61 -32 -79 -23 -86 -38 -86 -172 0 -132 7 -145 89 -172 52 -17 54 -18 75
-77 12 -34 29 -71 38 -84 16 -22 15 -26 -9 -62 -17 -26 -26 -53 -26 -81 0 -38
6 -46 80 -120 71 -69 85 -78 118 -78 20 0 54 10 75 21 l38 21 90 -38 c88 -37
90 -38 107 -86 26 -72 40 -78 175 -78 108 0 118 2 138 23 11 12 26 43 32 69
11 42 16 49 49 59 20 6 58 22 85 36 l50 24 47 -25 c79 -44 112 -33 206 67 74
79 80 104 47 174 l-25 53 24 52 c13 29 30 69 36 90 11 32 17 37 62 48 78 19
89 41 89 170 0 121 -14 153 -70 164 -17 3 -43 9 -60 12 -19 4 -30 12 -30 23 0
9 -15 48 -34 87 l-34 71 24 39 c40 65 33 92 -42 178 -86 98 -119 111 -192 71
l-49 -27 -49 25 c-27 13 -65 30 -85 36 -32 10 -38 17 -49 59 -6 26 -21 57 -32
70 -20 20 -30 22 -138 22 -88 0 -121 -4 -138 -15z m212 -480 c95 -16 193 -92
242 -187 39 -75 45 -199 14 -280 -28 -76 -104 -159 -178 -195 -50 -25 -68 -28
-152 -28 -84 0 -102 3 -152 28 -74 36 -150 119 -178 195 -31 81 -25 205 14
280 34 66 91 124 155 157 51 25 138 45 176 39 11 -1 38 -6 59 -9z"/>
<path d="M765 2081 c-81 -20 -135 -73 -155 -152 -7 -29 -10 -120 -8 -256 l3
-210 30 -48 c20 -32 45 -56 74 -72 43 -22 53 -23 276 -23 223 0 233 1 276 23
24 13 58 43 74 66 l30 43 3 231 c3 195 1 237 -13 274 -22 57 -84 109 -147 122
-54 12 -396 13 -443 2z m403 -243 c7 -7 12 -26 12 -43 0 -25 -13 -43 -67 -96
-173 -167 -181 -169 -266 -80 -61 64 -72 98 -40 133 24 27 58 22 98 -13 l36
-32 73 72 c62 60 79 71 108 71 19 0 39 -5 46 -12z"/>
<path d="M1743 1963 c-50 -10 -69 -81 -34 -124 l19 -24 759 -3 c707 -2 760 -1
793 15 48 24 61 64 34 100 -12 15 -32 31 -45 34 -26 8 -1489 9 -1526 2z"/>
<path d="M1716 1569 c-34 -27 -36 -77 -3 -107 23 -22 24 -22 494 -22 434 0
472 1 492 18 33 26 31 79 -3 109 l-27 23 -463 0 c-454 0 -464 0 -490 -21z"/>
<path d="M725 1136 c-39 -17 -79 -55 -102 -97 -15 -29 -18 -63 -21 -243 -4
-228 3 -280 44 -334 14 -18 44 -42 67 -54 39 -21 59 -23 242 -26 234 -5 284 3
343 54 68 58 74 86 70 351 l-3 231 -30 43 c-16 23 -50 53 -74 66 -43 22 -52
23 -275 23 -170 -1 -239 -4 -261 -14z m433 -222 c15 -10 22 -25 22 -47 0 -27
-16 -48 -107 -139 -138 -138 -142 -139 -237 -30 -61 70 -60 122 5 137 21 5 34
0 63 -26 l37 -32 78 77 c81 78 101 87 139 60z"/>
<path d="M1710 1010 c-20 -20 -27 -74 -12 -96 21 -32 51 -34 602 -34 629 0
609 -3 610 82 0 71 24 68 -612 68 -555 0 -568 0 -588 -20z"/>
<path d="M1745 653 c-56 -14 -76 -91 -34 -129 20 -18 43 -19 495 -19 460 0
474 1 493 20 33 34 36 68 8 101 l-25 29 -459 1 c-252 1 -467 0 -478 -3z"/>
</g>
</svg>
